<?xml version="1.0" encoding="UTF-8"?><svg id="Layer_2" xmlns="http://www.w3.org/2000/svg" viewBox="0 0 542.36 266.4"><g id="Layer_1-2"><g><g><path d="M130.64,2.18L109.97,0l-33.74,85.37,21.32,2.25,6.8-17.98,31.78,3.35,6.93,19.43,21.19-.12L130.64,2.18Zm-20.28,51.09l9.55-25.54,9.94,27.6-19.49-2.06Z"/><path d="M175.1,6.87V95.8l21.45,2.27V9.13l-21.45-2.26Z"/><path d="M282.67,61.71c2.49-3.71,3.73-8.26,3.73-13.67,0-10.29-3.58-18.14-10.73-23.56s-15.65-8.65-25.5-9.69l-34.13-3.6V100.12l8.2,.87c4.31-1.15,8.73-2.32,13.24-3.52v-24.9l11.64,1.23c.7,.07,1.42,.14,2.16,.22,.74,.08,1.46,.11,2.16,.1,2.62,5.24,5.23,10.51,7.85,15.8,.18,.36,.36,.72,.54,1.08,6.44-1.72,13.04-3.47,19.78-5.27-2.75-5.23-5.51-10.45-8.29-15.66,3.75-1.87,6.87-4.66,9.35-8.36Zm-22.63-7.1c-2.66,1.86-6.08,2.56-10.26,2.12l-12.3-1.3V30.72l12.04,1.27c4.53,.47,8.08,1.85,10.66,4.13,2.57,2.28,3.85,5.55,3.85,9.82,0,3.93-1.33,6.82-3.99,8.67Z"/></g><g><path d="M262.22,204.5l-38.19-4.03v-31.02c-7.25,3.1-14.42,6.17-21.45,9.17v36.46l61.99,6.54-2.35-17.12Z"/><path d="M321.46,138.69l-20.5-2.16c-.06,.03-.13,.06-.2,.08l-33.7,85.27,21.31,2.25,6.81-17.98,31.78,3.35,6.93,19.43,21.18-.12-33.61-90.12Zm-20.27,51.09l9.55-25.54,9.94,27.6-19.49-2.06Z"/><path d="M422.95,149.4v52.83l-36.62-56.7-20.4-2.15v88.93l21.45,2.27v-51.79c6.01,9.09,12.09,18.36,18.24,27.82,6.15,9.45,12.27,18.73,18.38,27.83l20.4,2.15v-88.93l-21.45-2.26Z"/><path d="M531.76,173.24c-7.06-8.99-17.52-14.21-31.39-15.67l-36.48-3.85v88.93l36.48,3.85c12.65,1.33,22.8-1.65,30.48-8.95,7.67-7.3,11.51-17.83,11.51-31.61,0-12.82-3.53-23.72-10.6-32.7Zm-17.52,50.85c-3.92,4.08-8.94,5.8-15.04,5.15l-13.87-1.46v-54.54l14.78,1.56c6.63,.7,11.62,3.69,14.98,8.97,3.35,5.28,5.03,11.89,5.03,19.82,0,9.6-1.96,16.43-5.88,20.5Z"/></g><path d="M449.53,56.62s-52.06,22.29-117.62,50.35c-34.11,14.59-71.88,30.75-107.88,46.15-7.24,3.1-14.4,6.16-21.45,9.18-25.29,10.81-49.08,20.99-69.35,29.66-17.12,7.32-21.7,9.17-29.74,12-19.06,6.69-36.29,10.14-50.56,10.14-1.14,0-2.25-.02-3.34-.06-13.39-.53-24.35-4.2-32.92-11.01-1.64-1.3-5.53-5.2-6.84-6.84-3.48-4.37-5.84-8.62-7.41-13.34-4.85-14.52-2.36-33.58,7.13-54.49,8.13-17.91,20.67-35.67,42.54-60.26,3.23-3.62,12.82-14.21,12.88-14.21,0,.05-.52,.94-1.15,2.01-5.69,9.53-10.56,20.75-13.21,30.47-4.26,15.59-3.75,28.96,1.5,39.34,3.63,7.14,9.83,13.33,16.82,16.76,6.65,3.25,14.98,4.89,24.71,4.89,8.15,0,17.29-1.15,27.25-3.44,1.41-.33,66.37-17.57,147.84-39.23,5.87-1.57,11.82-3.15,17.84-4.75,.74-.2,1.48-.39,2.22-.59,88.56-23.57,160.66-42.73,160.74-42.73Z"/><path d="M202.32,266.38h336.17s-335.39-33.3-335.39-33.3c-7.99-.96-9.18,34.3-.78,33.3Z"/></g></g></svg>