<svg width="18" height="14" viewBox="0 0 18 14" fill="none" xmlns="http://www.w3.org/2000/svg">
<path d="M9 13.1C8.78475 13.1 8.57596 13.05 8.37363 12.95C8.1713 12.85 8.00341 12.7167 7.86995 12.55L0.443946 3.35C0.147981 2.98333 0 2.51667 0 1.95C0 1.38333 0.147981 0.916666 0.443946 0.549999C0.73991 0.183333 1.11659 0 1.57399 0C2.03139 0 2.40807 0.183333 2.70404 0.549999L9 8.35L15.296 0.549999C15.5919 0.183333 15.9686 0 16.426 0C16.8834 0 17.2601 0.183333 17.5561 0.549999C17.852 0.916666 18 1.38333 18 1.95C18 2.51667 17.852 2.98333 17.5561 3.35L10.13 12.55C9.96861 12.75 9.79372 12.892 9.60538 12.976C9.41704 13.06 9.21525 13.1013 9 13.1Z" fill="#fff"/>
</svg>
