<svg width="48" height="18" viewBox="0 0 48 18" fill="none" xmlns="http://www.w3.org/2000/svg">
<path d="M48 0.600098L12.884 15.5521C9.97199 16.7841 7.52599 17.4021 5.54799 17.4021C3.30799 17.4021 1.68199 16.6181 0.673994 15.0481C0.0399939 14.0401 -0.146006 12.7621 0.113994 11.2121C0.373994 9.6621 1.06599 8.0121 2.18599 6.2561C3.11999 4.8361 4.64999 2.9701 6.77999 0.656097C6.05752 1.79343 5.52774 3.04221 5.21199 4.3521C4.65199 6.7421 5.15599 8.4961 6.72399 9.6161C7.46999 10.1381 8.49599 10.4001 9.80399 10.4001C10.848 10.4001 12.024 10.2321 13.332 9.8961L48 0.600098Z" fill="black"/>
</svg>
