<svg width="26" height="26" viewBox="0 0 26 26" fill="none" xmlns="http://www.w3.org/2000/svg">
<path d="M16.1819 13L25.0881 4.09375C25.5108 3.6718 25.7486 3.09923 25.7491 2.50199C25.7496 1.90474 25.5129 1.33175 25.0909 0.909059C24.669 0.486371 24.0964 0.24861 23.4992 0.248083C22.9019 0.247555 22.3289 0.484304 21.9062 0.906247L13 9.8125L4.09375 0.906247C3.67106 0.483558 3.09777 0.246094 2.5 0.246094C1.90222 0.246094 1.32894 0.483558 0.906247 0.906247C0.483558 1.32894 0.246094 1.90222 0.246094 2.5C0.246094 3.09777 0.483558 3.67106 0.906247 4.09375L9.8125 13L0.906247 21.9062C0.483558 22.3289 0.246094 22.9022 0.246094 23.5C0.246094 24.0978 0.483558 24.6711 0.906247 25.0937C1.32894 25.5164 1.90222 25.7539 2.5 25.7539C3.09777 25.7539 3.67106 25.5164 4.09375 25.0937L13 16.1875L21.9062 25.0937C22.3289 25.5164 22.9022 25.7539 23.5 25.7539C24.0978 25.7539 24.6711 25.5164 25.0937 25.0937C25.5164 24.6711 25.7539 24.0978 25.7539 23.5C25.7539 22.9022 25.5164 22.3289 25.0937 21.9062L16.1819 13Z" fill="black"/>
</svg>
