<svg width="15" height="8" viewBox="0 0 15 8" fill="none" xmlns="http://www.w3.org/2000/svg">
<path d="M0.93725 5.81818H14.0627C14.3003 5.81827 14.5289 5.92327 14.7025 6.11196C14.8761 6.30066 14.9816 6.55898 14.9978 6.83473C15.014 7.11049 14.9396 7.38312 14.7897 7.59753C14.6398 7.81194 14.4256 7.95214 14.1903 7.98982L14.0627 8H0.93725C0.699711 7.99992 0.471056 7.89492 0.297486 7.70622C0.123916 7.51753 0.0183724 7.2592 0.00218181 6.98345C-0.0140088 6.70769 0.0603605 6.43507 0.210263 6.22066C0.360165 6.00625 0.574424 5.86604 0.809745 5.82836L0.93725 5.81818ZM0.93725 0H14.0627C14.3003 8.47165e-05 14.5289 0.105083 14.7025 0.293778C14.8761 0.482474 14.9816 0.740798 14.9978 1.01655C15.014 1.29231 14.9396 1.56493 14.7897 1.77934C14.6398 1.99375 14.4256 2.13396 14.1903 2.17164L14.0627 2.18182H0.93725C0.699711 2.18173 0.471056 2.07674 0.297486 1.88804C0.123916 1.69934 0.0183724 1.44102 0.00218181 1.16527C-0.0140088 0.88951 0.0603605 0.616884 0.210263 0.402474C0.360165 0.188064 0.574424 0.0478566 0.809745 0.0101818L0.93725 0Z" fill="#fff"/>
</svg>
